<?xml version="1.0" standalone="no"?>
<!DOCTYPE svg PUBLIC "-//W3C//DTD SVG 20010904//EN"
 "http://www.w3.org/TR/2001/REC-SVG-20010904/DTD/svg10.dtd">
<svg version="1.0" xmlns="http://www.w3.org/2000/svg"
 width="700.000000pt" height="700.000000pt" viewBox="0 0 700.000000 700.000000"
 preserveAspectRatio="xMidYMid meet">
<metadata>
Created by potrace 1.14, written by Peter Selinger 2001-2017
</metadata>
<g transform="translate(0.000000,700.000000) scale(0.100000,-0.100000)"
fill="#000000" stroke="none">
<path d="M3394 6113 c-64 -13 -196 -71 -714 -316 -58 -27 -132 -62 -165 -77
-33 -15 -98 -46 -145 -67 -47 -22 -188 -89 -315 -148 -232 -108 -326 -152
-490 -230 -49 -23 -111 -52 -137 -63 -271 -124 -422 -212 -401 -233 4 -4 53
-26 108 -49 55 -23 114 -47 130 -55 17 -7 102 -43 190 -79 88 -37 196 -82 240
-101 44 -19 253 -107 465 -196 212 -88 453 -189 535 -224 83 -35 245 -102 360
-150 116 -48 233 -97 260 -110 28 -12 82 -34 120 -49 l71 -28 99 42 c96 40
118 50 203 86 60 26 73 32 587 247 270 113 508 213 530 222 22 10 45 19 50 21
6 1 33 12 60 24 28 12 59 25 70 30 11 4 40 17 65 28 25 11 124 52 220 92 96
40 193 81 215 91 22 9 108 45 190 79 207 86 193 76 153 112 -49 44 -88 65
-378 201 -146 68 -301 141 -345 162 -95 45 -225 105 -313 146 -35 16 -136 64
-225 106 -89 42 -189 88 -222 103 -33 15 -105 49 -160 75 -475 223 -556 261
-616 285 -88 35 -191 43 -295 23z"/>
<path d="M876 3403 c1 -637 4 -1165 6 -1173 2 -8 8 -31 12 -50 15 -63 66 -150
119 -203 80 -80 71 -75 322 -192 50 -24 326 -154 615 -290 648 -305 687 -324
780 -368 41 -19 180 -85 308 -146 178 -84 234 -107 239 -96 3 8 6 611 6 1339
l2 1325 -155 65 c-85 35 -258 108 -385 162 -126 53 -270 113 -320 134 -49 21
-263 111 -475 200 -212 89 -455 191 -540 227 -85 35 -168 71 -185 78 -30 14
-346 145 -349 145 0 0 0 -521 0 -1157z"/>
<path d="M5735 4399 c-209 -88 -393 -166 -410 -174 -16 -7 -55 -23 -85 -35
-30 -12 -59 -25 -65 -29 -12 -9 -101 -42 -112 -43 -5 0 -12 -3 -18 -8 -5 -4
-93 -43 -195 -85 -102 -42 -198 -83 -215 -90 -51 -23 -166 -71 -260 -110 -103
-42 -380 -158 -440 -184 -22 -10 -80 -35 -130 -55 l-90 -38 2 -1287 c1 -707 2
-1307 3 -1333 0 -55 11 -60 69 -28 20 11 80 40 134 65 53 25 141 66 195 91 53
25 124 59 157 74 33 15 104 48 157 74 53 25 126 59 162 75 35 17 111 52 168
79 139 67 290 139 363 172 75 35 197 92 340 160 61 29 137 65 170 80 238 110
277 132 339 193 69 67 115 148 137 237 10 44 13 280 14 1208 0 633 -2 1152 -5
1151 -3 0 -176 -72 -385 -160z"/>
</g>
</svg>
